<?xml version="1.0" encoding="UTF-8" standalone="no"?>
<!DOCTYPE svg PUBLIC "-//W3C//DTD SVG 1.1//EN" "http://www.w3.org/Graphics/SVG/1.1/DTD/svg11.dtd">
<svg width="100%" height="100%" viewBox="0 0 1067 798" version="1.1" xmlns="http://www.w3.org/2000/svg" xmlns:xlink="http://www.w3.org/1999/xlink" xml:space="preserve" xmlns:serif="http://www.serif.com/" style="fill-rule:evenodd;clip-rule:evenodd;stroke-linejoin:round;stroke-miterlimit:2;">
    <g transform="matrix(0.672791,-0.388436,0.388436,0.672791,-110.779,51.3644)">
        <g transform="matrix(1,0,0,1.05415,-308.798,-16.9877)">
            <path d="M503.966,299C530.269,299 551.592,319.228 551.592,344.18C551.592,395.669 551.592,479.331 551.592,530.82C551.592,555.772 530.269,576 503.966,576C471.078,576 427.515,576 394.627,576C368.323,576 347,555.772 347,530.82C347,479.331 347,395.669 347,344.18C347,319.228 368.323,299 394.627,299C427.515,299 471.078,299 503.966,299Z" style="fill:rgb(31,41,55);"/>
            <path d="M503.966,278.168C542.397,278.168 573.553,307.723 573.553,344.18L573.553,530.82C573.553,567.277 542.397,596.832 503.966,596.832L394.627,596.832C356.195,596.832 325.04,567.277 325.04,530.82L325.04,344.18C325.04,307.723 356.195,278.168 394.627,278.168L503.966,278.168ZM503.966,299L394.627,299C368.323,299 347,319.228 347,344.18L347,530.82C347,555.772 368.323,576 394.627,576L503.966,576C530.269,576 551.592,555.772 551.592,530.82L551.592,344.18C551.592,319.228 530.269,299 503.966,299Z" style="fill:white;"/>
        </g>
        <g transform="matrix(1,0,0,1,-27.1535,-273.593)">
            <g transform="matrix(198.113,0,0,198.113,221.771,790)">
            </g>
            <text x="135px" y="790px" style="font-family:'SegoeUI-Bold', 'Segoe UI';font-weight:700;font-size:198.113px;fill:rgb(197,42,95);">?</text>
        </g>
    </g>
    <g transform="matrix(0.672791,0.388436,-0.388436,0.672791,832.099,33.3708)">
        <g transform="matrix(1,0,0,1.05415,-75,-14.1913)">
            <path d="M503.966,299C530.269,299 551.592,319.228 551.592,344.18C551.592,395.669 551.592,479.331 551.592,530.82C551.592,555.772 530.269,576 503.966,576C471.078,576 427.515,576 394.627,576C368.323,576 347,555.772 347,530.82C347,479.331 347,395.669 347,344.18C347,319.228 368.323,299 394.627,299C427.515,299 471.078,299 503.966,299Z" style="fill:rgb(31,41,55);"/>
            <path d="M503.966,278.168C542.397,278.168 573.553,307.723 573.553,344.18L573.553,530.82C573.553,567.277 542.397,596.832 503.966,596.832L394.627,596.832C356.195,596.832 325.04,567.277 325.04,530.82L325.04,344.18C325.04,307.723 356.195,278.168 394.627,278.168L503.966,278.168ZM503.966,299L394.627,299C368.323,299 347,319.228 347,344.18L347,530.82C347,555.772 368.323,576 394.627,576L503.966,576C530.269,576 551.592,555.772 551.592,530.82L551.592,344.18C551.592,319.228 530.269,299 503.966,299Z" style="fill:white;"/>
        </g>
        <g transform="matrix(1,0,0,1,194.847,-273.733)">
            <g transform="matrix(198.113,0,0,198.113,221.771,790)">
            </g>
            <text x="135px" y="790px" style="font-family:'SegoeUI-Bold', 'Segoe UI';font-weight:700;font-size:198.113px;fill:rgb(42,159,197);">?</text>
        </g>
    </g>
    <g transform="matrix(0.616852,0,0,0.616852,-19.9639,-55.8357)">
        <path d="M509.241,1269.34C501.273,1261.71 402.948,1122.26 397.206,1107.29L397.082,1106.95C391.609,1092.04 386.943,1070.48 389.591,1043.66C391.863,1020.65 399.013,999.997 408.522,983.101L408.677,982.833C416.456,969.407 426.626,956.49 438.726,945.119L415.285,918.112L442.204,636.453L470.574,636.453C470.131,634.533 450.814,583.699 448.711,578.473L448.579,578.13C443.225,564.231 438.87,544.607 441.248,520.524C443.285,499.891 449.856,481.184 458.867,465.697L459.03,465.425C464.161,456.862 470.505,448.397 477.968,440.454L462.601,423.023L486.755,170.292L853.514,170.292L852.901,205.088C854.639,203.523 856.436,201.99 858.292,200.494C877.791,184.78 899.939,177.398 904.625,175.902C909.191,174.397 929.358,167.733 958.461,167.733C965.683,167.733 991.28,168.128 1016.91,177.093C1026.61,180.458 1035.28,184.569 1042.94,189.051L1041.7,170.292L1299.98,170.292L1328.33,423.023L1312.82,439.967C1316.15,443.271 1319.14,446.567 1321.82,449.788C1336.19,467.09 1347.86,490.628 1351.21,519.717C1359.88,594.807 1323.13,634.62 1322.73,636.453L1388.81,636.453L1373.41,697.817C1358.28,758.099 1342.31,820.31 1326.3,881.293L1316.72,917.791C1345.25,930.248 1366,948.101 1379.95,965.481C1394.95,984.172 1407.79,1010.11 1411.57,1042.86C1412.74,1053.05 1415.97,1090.75 1396.08,1125.91C1396.08,1125.91 1313.97,1241.79 1313.91,1241.89L1313.84,1242.01C1305.16,1257.12 1289.8,1275.17 1263.26,1288.09L1263.08,1288.17C1233.64,1302.17 1200.77,1302.63 1193.08,1302.63C1193.08,1302.63 619.563,1305.55 607.533,1305.55L607.512,1305.55C585.325,1305.55 567.155,1301.42 553.928,1296.78L553.598,1296.66C534.096,1289.44 519.386,1279.05 509.241,1269.34Z" style="fill:rgb(31,41,55);"/>
        <path d="M397.082,1141.49L364.665,1118.85C357.869,1100.34 351.937,1073.58 355.226,1040.27C358.007,1012.11 366.792,986.842 378.427,966.165L378.43,966.169C366.374,987.842 383.354,1003.19 396.329,1011.13C393.076,1021.27 390.725,1032.17 389.591,1043.66C386.943,1070.48 391.609,1092.04 397.082,1106.95L397.206,1107.29C398.23,1109.96 402.202,1116.59 408.081,1125.73L397.082,1141.49ZM378.43,966.169C378.548,965.956 378.669,965.743 378.793,965.529L378.798,965.521L399.676,1001.75C399.616,1001.9 399.557,1002.05 399.498,1002.2L378.43,966.169ZM378.798,965.521C382.895,958.449 387.539,951.492 392.685,944.755L379.501,929.565L410.814,601.921L420.716,601.921C418.676,596.541 417.14,592.518 416.676,591.365L416.683,591.37C418.459,595.709 420.729,599.166 423.238,601.921L432.302,601.921L448.22,612.674L448.233,612.673L432.739,601.921L432.931,601.921L416.355,590.543C409.53,572.826 403.852,547.829 406.883,517.13C409.44,491.236 417.711,467.766 429.02,448.33L429.022,448.334C416.599,469.937 433.643,485.51 446.671,493.603C444.052,502.093 442.178,511.108 441.248,520.524C438.87,544.607 443.225,564.231 448.579,578.13L448.711,578.473C449.545,580.544 453.081,589.776 457.074,600.288C463.16,616.305 470.307,635.294 470.574,636.453L442.204,636.453L415.285,918.112L438.726,945.119C426.626,956.49 416.456,969.407 408.677,982.833L408.522,983.101C405.661,988.185 403.013,993.609 400.648,999.335C392.959,982.236 381.965,960.092 378.798,965.521ZM416.683,591.37C416.573,591.101 416.465,590.828 416.359,590.553L432.739,601.921L432.302,601.921L416.683,591.37ZM429.022,448.334C429.146,448.118 429.273,447.901 429.404,447.684L429.408,447.677L450.013,484.043C449.952,484.2 449.89,484.357 449.829,484.514L429.022,448.334ZM429.408,447.677C430.589,445.707 431.82,443.741 433.103,441.782L426.802,434.635L455.365,135.76L888.661,135.76L888.499,144.93C890.906,144.056 892.749,143.447 893.876,143.086C899.482,141.237 923.639,133.201 958.461,133.201C964.865,133.201 983.348,133.52 1004.97,138.06L1004.82,135.76L1330.85,135.76L1364.4,434.77L1358.47,441.245C1371.82,461.236 1382.11,486.208 1385.52,515.76C1389.39,549.361 1384.41,578.837 1377.19,601.921L1433.08,601.921L1406.9,706.224C1391.74,766.625 1375.74,828.959 1359.7,890.062C1359.7,890.062 1357.08,900.047 1357.08,900.047C1378.27,913.171 1394.7,928.693 1406.88,943.87C1425.31,966.839 1441.23,998.662 1445.87,1038.9C1447.34,1051.67 1451.07,1098.86 1426.14,1142.91L1425.27,1144.44L1424.26,1145.87C1424.26,1145.87 1344.02,1258.8 1343.96,1258.9L1313.91,1276.42L1313.51,1275.73C1312.44,1273.17 1308.92,1264.81 1304.63,1255.53C1308.32,1250.9 1311.36,1246.34 1313.84,1242.01L1313.91,1241.89C1313.97,1241.79 1396.08,1125.91 1396.08,1125.91C1415.97,1090.75 1412.74,1053.05 1411.57,1042.86C1407.79,1010.11 1394.95,984.172 1379.95,965.481C1366,948.101 1345.25,930.248 1316.72,917.791L1326.3,881.293C1342.31,820.31 1358.28,758.099 1373.41,697.817L1388.81,636.453L1322.73,636.453C1323.13,634.62 1359.88,594.807 1351.21,519.717C1347.86,490.628 1336.19,467.09 1321.82,449.788C1319.14,446.567 1316.15,443.271 1312.82,439.967L1328.33,423.023L1299.98,170.292L1041.7,170.292L1042.94,189.051C1035.28,184.569 1026.61,180.458 1016.91,177.093C991.28,168.128 965.683,167.733 958.461,167.733C929.358,167.733 909.191,174.397 904.625,175.902C899.939,177.398 877.791,184.78 858.292,200.494C856.436,201.99 854.639,203.523 852.901,205.088L853.514,170.292L486.755,170.292L462.601,423.023L477.968,440.454C470.505,448.397 464.161,456.862 459.03,465.425L458.867,465.697C455.974,470.67 453.331,475.976 451.01,481.57C443.435,464.383 432.654,442.297 429.408,447.677ZM1313.91,1276.42C1313.91,1276.42 1313.95,1276.43 1314.03,1276.43C1315.63,1276.56 1333.21,1277.49 1343.79,1259.21C1332.53,1278.8 1312.78,1302.39 1278.37,1319.14L1263.26,1322.62L1263,1321.51C1262.72,1317.44 1261.67,1303.56 1259.79,1289.68C1260.89,1289.19 1261.99,1288.69 1263.08,1288.17L1263.26,1288.09C1276.51,1281.64 1286.98,1273.9 1295.22,1265.9C1303.57,1272.27 1312.4,1275.83 1313.74,1276.36L1313.84,1276.54C1313.84,1276.54 1313.82,1276.48 1313.77,1276.37C1313.86,1276.4 1313.91,1276.42 1313.91,1276.42ZM1314.03,1276.43L1343.85,1259.1C1343.83,1259.13 1343.81,1259.17 1343.79,1259.21L1314.03,1276.43ZM1263.26,1322.62C1263.26,1322.62 1263.3,1322.63 1263.38,1322.64L1263.39,1322.64C1264.29,1322.73 1269.93,1323.11 1277.9,1319.37C1242.34,1336.27 1202.69,1337.15 1193.18,1337.16C1185.74,1337.2 619.487,1340.09 607.533,1340.09L607.533,1305.55C619.563,1305.55 1193.08,1302.63 1193.08,1302.63C1198.85,1302.63 1218.85,1302.37 1240.92,1296.31C1248.83,1309.49 1261.14,1320.73 1263.02,1322.41L1263.08,1322.71C1263.08,1322.71 1263.08,1322.62 1263.07,1322.45C1263.19,1322.57 1263.26,1322.62 1263.26,1322.62ZM1263.39,1322.64L1278.08,1319.28C1278.02,1319.31 1277.96,1319.34 1277.9,1319.37L1263.39,1322.64ZM607.533,1340.09L607.512,1340.09L607.52,1305.55L607.53,1305.55L607.533,1340.09ZM607.512,1340.09C580.589,1340.09 558.554,1334.99 542.503,1329.37L542.535,1329.37C548.366,1331.38 552.327,1331.28 553.341,1331.21L553.928,1331.31L553.373,1331.21C553.522,1331.2 553.598,1331.19 553.598,1331.19L559.44,1298.59C572.037,1302.44 588.262,1305.55 607.512,1305.55L607.512,1340.09ZM542.535,1329.37C542.237,1329.27 541.934,1329.16 541.626,1329.05L553.373,1331.21C553.363,1331.21 553.352,1331.21 553.341,1331.21L542.535,1329.37ZM553.598,1331.19L541.617,1329.05C516.863,1319.89 498.242,1306.61 485.364,1294.29C477.61,1286.86 390.548,1163.34 369.326,1127.77C378.934,1141.15 394.225,1141.53 396.73,1141.49L397.206,1141.82L396.742,1141.49C396.965,1141.49 397.082,1141.49 397.082,1141.49L408.083,1125.73C435.159,1167.82 502.695,1263.07 509.241,1269.34C519.386,1279.05 534.096,1289.44 553.598,1296.66L553.928,1296.78C555.678,1297.39 557.515,1298 559.435,1298.59L553.598,1331.19ZM369.326,1127.77C367.757,1125.59 366.34,1123.06 365.155,1120.12C365.847,1121.74 367.281,1124.35 369.326,1127.77ZM365.155,1120.12C365.084,1119.96 365.02,1119.8 364.965,1119.66L364.972,1119.66C365.033,1119.82 365.093,1119.97 365.155,1120.12ZM364.972,1119.66C364.869,1119.4 364.768,1119.13 364.669,1118.86L396.742,1141.49L396.73,1141.49L364.972,1119.66ZM1313.51,1275.73C1313.63,1276.02 1313.72,1276.23 1313.77,1276.37L1313.74,1276.36L1302.9,1257.64C1302.91,1257.63 1302.92,1257.61 1302.93,1257.6L1313.51,1275.73ZM1263,1321.51C1263.03,1321.94 1263.05,1322.25 1263.07,1322.45L1263.02,1322.41L1255.99,1291.27C1256.01,1291.27 1256.02,1291.26 1256.03,1291.26L1263,1321.51Z" style="fill:white;"/>
    </g>
    <g transform="matrix(0.616852,0,0,0.616852,-19.9639,-55.8357)">
        <path d="M469.576,868.763C475.404,807.776 481.233,746.789 487.061,685.802L533.248,685.802C529.12,735.012 524.992,784.222 520.864,833.432L624.673,833.432C623.983,845.209 623.293,856.986 622.604,868.763L469.576,868.763ZM817.655,871.994C798.945,871.994 783.273,868.679 771.845,864.728C756.517,859.354 744.544,851.705 736.125,844.364C726.243,835.575 718.549,824.895 713.534,813.796C709.183,803.792 706.191,790.836 706.773,775.934C707.331,761.647 711.058,748.819 716.324,738.528C721.932,727.922 730.177,717.553 740.648,708.98C749.49,701.741 761.464,694.587 776.069,689.61C787.211,685.814 802.081,682.759 819.524,682.759C838.35,682.759 853.095,686.221 862.823,689.61C877.653,694.703 889.285,701.981 897.513,708.98C907.762,717.532 915.779,727.892 921.158,738.528C926.102,748.16 929.898,760.908 930.141,775.934C930.373,790.272 927.219,803.372 922.222,814.061C917.06,824.931 909.108,835.676 898.631,844.632C890.521,851.555 878.562,859.224 862.737,864.728C851.729,868.613 836.329,871.994 817.655,871.994ZM817.78,835.03C831.69,835.03 841.309,831.486 843.247,830.772C855.087,826.518 862.509,819.846 863.939,818.561C872.767,810.626 876.703,801.505 877.435,799.807C878.248,798.036 882.375,789.039 882.318,775.934C882.262,762.904 878.106,753.998 877.287,752.242C876.557,750.581 872.625,741.63 863.956,733.884C862.598,732.629 855.598,726.159 844.106,722.048C842.198,721.366 832.626,717.942 819.121,717.942C805.617,717.942 795.959,721.369 794.043,722.048C782.745,726.159 775.327,732.654 773.922,733.884C772.531,735.102 765.076,741.63 759.88,752.242C759.065,754.005 754.951,762.904 754.596,775.934C754.246,788.777 757.922,798.008 758.638,799.807C763.352,810.625 770.379,817.302 771.704,818.561C773.106,819.848 780.373,826.518 792.115,830.772C794.072,831.481 803.87,835.03 817.78,835.03ZM1171.07,743.62C1158.94,784.326 1145.87,827.651 1133.29,868.763L1081.39,868.763C1056.04,807.666 1030.78,745.949 1006.52,685.802L1054.41,685.802C1071.46,727.518 1089.46,771.144 1107.01,813.278C1120.17,771.356 1133.8,727.363 1146.5,685.802L1189.27,685.802C1208.02,727.981 1227.59,771.611 1246.88,814.244C1258.39,772.019 1270.28,727.693 1281.35,685.802L1325.55,685.802C1310.46,745.915 1294.53,807.951 1278.57,868.763L1226.66,868.763C1208.05,827.234 1189.14,784.666 1171.07,743.62ZM549.219,1152.88C529.431,1152.88 513.207,1149.31 501.706,1145.28C485.832,1139.41 473.787,1131.06 465.529,1123.16C455.759,1113.81 448.141,1102.28 443.409,1089.95C439.828,1080.19 436.968,1066.06 438.701,1048.51C440.243,1032.9 445.027,1018.86 451.377,1007.57C458.199,995.799 467.654,984.595 478.963,975.449C489.49,967.088 502.745,959.636 517.698,954.663C529.892,950.457 545.824,947.212 564.209,947.212C570.275,947.212 592.228,947.365 613.532,956.045C629.255,962.16 641.468,971.534 650.012,981.571C638.869,990.519 627.727,999.467 616.584,1008.42C615.02,1006.69 606.166,996.921 593.004,991.333C590.838,990.366 579.876,985.473 563.933,985.473C548.909,985.473 538.124,989.198 535.984,989.937C523.044,994.406 514.725,1001.45 513.124,1002.81C511.555,1004.13 503.177,1011.23 496.938,1022.76C495.96,1024.66 490.98,1034.35 489.749,1048.51C488.511,1062.76 491.83,1072.48 492.504,1074.46C496.83,1086.21 504.167,1093.48 505.543,1094.84C506.971,1096.25 514.28,1103.48 526.856,1108.1C528.992,1108.89 539.445,1112.73 554.929,1112.73C571.363,1112.73 583.309,1107.89 585.625,1106.95C587.977,1105.95 599.889,1100.88 611.917,1088.8C622.342,1098.03 632.766,1107.26 643.191,1116.49C633.158,1127.11 619.364,1136.95 602.377,1143.53C590.656,1148.13 572.613,1152.88 549.219,1152.88ZM716.709,1105.79C709.593,1120.32 702.478,1134.85 695.363,1149.37L642.484,1149.37C678.408,1082.36 713.68,1015.48 747.404,950.521L796.076,950.521C827.031,1015.47 859.459,1082.35 892.541,1149.37L838.388,1149.37C831.943,1134.85 825.497,1120.32 819.051,1105.79L716.709,1105.79ZM803.48,1070.45C800.481,1063.63 786.741,1032.34 770.438,994.715C767.089,1001.7 752.147,1032.87 733.908,1070.45L803.48,1070.45ZM966.084,1092.82C966.522,1111.67 966.96,1130.52 967.398,1149.37L915.794,1149.37C915.028,1083.09 914.262,1016.81 913.496,950.521L1005.67,950.521C1011.33,950.521 1034.36,950.566 1055.34,959.087C1072.5,965.839 1082.86,975.734 1088.61,983.243C1095.25,991.903 1101.14,1004.6 1102.07,1021.35C1102.34,1026.3 1103.07,1043.76 1092.64,1059.61C1082.05,1075.38 1065.41,1082.38 1060.98,1084.2L1060.56,1084.38C1064.18,1088.87 1086.45,1116.46 1113.29,1149.37L1057.55,1149.37C1053.96,1144.85 1035.07,1121.08 1012.82,1092.81L1010.42,1092.82L966.084,1092.82ZM965.226,1055.91L1006.38,1055.91C1009.05,1055.91 1029.35,1056.26 1040.93,1046.81C1046.53,1042.1 1051.89,1034.06 1051.34,1021.35C1050.79,1008.84 1045.09,1000.83 1038.86,996.085C1026.77,986.87 1007.13,987.146 1004.13,987.146L963.628,987.146C964.16,1010.07 964.693,1032.99 965.226,1055.91ZM1149.92,1149.37C1145.64,1083.09 1141.36,1016.81 1137.08,950.521L1233.82,950.521C1241.88,950.521 1269.15,950.823 1296.2,962.685C1316.62,971.447 1331.54,984.008 1341.46,996.365C1351.55,1008.94 1360,1026.48 1362.54,1048.51C1363.29,1055.01 1365.84,1079.14 1353.21,1101.46C1346.49,1113.16 1334.37,1126.89 1313.97,1136.82C1287.61,1149.35 1258.11,1149.37 1251.22,1149.37L1149.92,1149.37ZM1198.58,1110.7L1245.31,1110.7C1249.29,1110.7 1267.37,1110.73 1282.8,1103.19C1294.5,1097.37 1301.73,1089.1 1305.8,1081.33C1313.35,1067.51 1311.9,1052.47 1311.5,1048.51C1309.98,1033.93 1304.63,1023.14 1299.17,1016C1293.31,1007.96 1284.46,1000.2 1272.44,994.967C1256.3,987.537 1239.2,987.425 1234.59,987.425L1189.18,987.425C1192.31,1028.52 1195.44,1069.61 1198.58,1110.7Z" style="fill:rgb(42,159,197);"/>
    </g>
    <g transform="matrix(0.616852,0,0,0.616852,-19.9639,-55.8357)">
        <path d="M564.824,309.375C563.026,330.808 561.228,352.241 559.43,373.674L516.891,373.674C521.798,322.33 526.705,270.986 531.612,219.641L572.351,219.641C570.684,239.51 569.018,259.378 567.351,279.247L648.687,279.247C649.898,259.378 651.109,239.51 652.319,219.641L693.058,219.641C690.529,270.986 688,322.33 685.471,373.674L642.932,373.674C644.238,352.241 645.545,330.808 646.851,309.375L564.824,309.375ZM758.032,373.674C759.537,322.33 761.043,270.986 762.548,219.641L803.287,219.641C802.381,270.986 801.476,322.33 800.571,373.674L758.032,373.674ZM1035.38,356.264C1032.9,357.928 1020.91,365.971 1001.18,371.18C981.675,376.398 965.123,376.398 961.958,376.398C958.7,376.398 940.138,376.398 921.66,370.5C908.142,365.956 897.135,359.264 889.796,353.337C880.544,345.718 873.516,336.634 868.877,327.582C864.612,318.96 861.635,307.972 861.646,295.475C861.657,282.957 864.66,272.127 868.804,263.775C873.28,255.066 880.124,246.28 889.258,238.919C902.307,228.403 917.218,223.679 919.853,222.844C922.82,221.868 937.361,217.083 958.461,217.083C963.673,217.083 982.189,217.212 1000.68,223.698C1014.93,228.63 1025.81,235.937 1033.33,243.008C1024.84,249.93 1016.34,256.853 1007.85,263.775C997.833,255.099 988.159,251.663 986.269,250.991C984.369,250.281 974.712,246.673 961.284,246.673C948.362,246.673 939.594,249.537 937.787,250.127C927.199,253.585 920.706,259.013 919.424,260.085C911.881,266.602 908.319,274.129 907.654,275.533C906.994,277.018 903.665,284.505 903.785,295.475C903.903,306.286 907.448,313.88 908.137,315.355C908.856,316.807 912.648,324.466 920.529,331.373C921.859,332.465 928.688,338.076 939.428,341.659C941.277,342.261 950.441,345.246 963.471,345.246C975.98,345.246 985.716,342.425 987.587,341.883C988.281,341.673 991.888,340.582 996.059,338.662C995.505,323.46 994.952,308.258 994.398,293.056L1032.4,293.056C1033.39,314.126 1034.38,335.195 1035.38,356.264ZM1142.11,309.375C1143.77,330.808 1145.43,352.241 1147.1,373.674L1104.56,373.674C1101.17,322.33 1097.79,270.986 1094.41,219.641L1135.15,219.641C1136.69,239.51 1138.23,259.378 1139.77,279.247L1221.11,279.247C1219.11,259.378 1217.11,239.51 1215.12,219.641L1255.85,219.641C1261.62,270.986 1267.38,322.33 1273.14,373.674L1230.6,373.674C1228.44,352.241 1226.29,330.808 1224.13,309.375L1142.11,309.375ZM587.724,613.619C570.267,613.619 556.013,610.572 545.99,607.189C531.772,602.127 521.22,594.963 514.16,588.476C505.366,580.397 498.731,570.583 494.63,560.391C491.377,551.948 488.914,540.004 490.358,525.373C491.649,512.3 495.754,500.428 501.362,490.789C507.195,481.055 515.404,471.536 525.512,463.667C534.55,456.755 546.148,450.392 559.513,446.123C569.445,442.831 583.846,439.835 600.401,439.835C605.689,439.835 625.028,439.956 643.804,447.289C658.015,452.588 668.672,460.664 675.933,468.835C666.154,476.39 656.374,483.945 646.595,491.5C637.414,481.795 627.702,477.839 625.829,477.076C623.913,476.256 614.273,472.128 600.255,472.128C587.043,472.128 577.578,475.271 575.692,475.897C564.326,479.671 557.044,485.609 555.629,486.763C546.909,493.874 542.319,502.081 541.459,503.618C540.609,505.217 536.257,513.407 535.217,525.373C534.171,537.407 537.118,545.637 537.713,547.299C541.547,557.236 548.022,563.384 549.224,564.526C550.492,565.729 556.923,571.835 567.979,575.743C569.863,576.409 579.048,579.655 592.647,579.655C607.079,579.655 617.553,575.563 619.593,574.766C621.644,573.926 632.107,569.639 642.652,559.42C651.824,567.225 660.997,575.031 670.17,582.837C661.6,591.584 649.574,600.028 634.378,605.707C624.475,609.458 608.633,613.619 587.724,613.619ZM734.724,573.789C728.493,586.076 722.261,598.363 716.03,610.649L669.603,610.649C700.576,554.779 731.707,497.876 761.539,442.628L804.349,442.628C831.838,497.882 860.552,554.783 889.152,610.649L841.606,610.649C835.942,598.363 830.278,586.076 824.613,573.789L734.724,573.789ZM810.921,543.915C801.225,522.587 791.53,501.259 781.834,479.931C771.155,501.259 760.475,522.587 749.795,543.915L810.921,543.915ZM953.765,562.823C954.136,578.765 954.506,594.707 954.877,610.649L909.568,610.649C908.921,554.642 908.274,498.635 907.627,442.628L988.697,442.628C993.62,442.628 1013.91,442.657 1032.37,449.856C1036.46,451.402 1051.13,457.113 1061.59,470.246C1067.61,477.799 1072.58,488.568 1073.35,502.428C1074.16,517.165 1069.7,527.889 1064.99,534.749C1055.62,548.139 1040.89,554.052 1037.13,555.535L1036.76,555.681C1052.16,574.004 1067.57,592.327 1082.97,610.649L1034.03,610.649C1020.96,594.703 1007.89,578.757 994.817,562.811L992.713,562.823L953.765,562.823ZM953.04,531.62L989.205,531.62C991.499,531.62 1009.37,531.926 1019.58,523.933C1024.98,519.567 1029.2,512.6 1028.76,502.428C1028.32,492.314 1023.69,485.387 1017.83,481.089C1007.2,473.296 989.882,473.541 987.302,473.541L951.69,473.541C952.14,492.901 952.59,512.26 953.04,531.62ZM1115.13,610.649C1111.52,554.642 1107.9,498.635 1104.28,442.628L1189.37,442.628C1196.36,442.628 1220.4,442.862 1244.19,452.893C1262.69,460.521 1275.6,471.379 1283.86,481.325C1292.9,492.207 1300.08,507.077 1302.19,525.373C1302.83,530.956 1304.95,551.291 1293.79,570.129C1282.54,588.855 1264.3,597.65 1259.2,600.034C1236.01,610.636 1210.08,610.649 1204.07,610.649L1115.13,610.649ZM1157.95,577.943L1198.99,577.943C1202.46,577.943 1218.35,577.971 1231.94,571.592C1242.66,566.463 1248.86,559.235 1252.21,553.11C1258.88,541.442 1257.68,528.767 1257.33,525.373C1256.08,513.297 1251.56,504.152 1246.61,497.909C1241.71,491.406 1234.06,484.703 1223.19,480.144C1209,473.86 1193.93,473.777 1189.93,473.777L1150,473.777C1152.65,508.499 1155.3,543.221 1157.95,577.943Z" style="fill:rgb(197,42,95);"/>
    </g>
</svg>
